<svg width="172" height="18" viewBox="0 0 172 18" fill="none" xmlns="http://www.w3.org/2000/svg">
<path d="M34.7713 15.04L31.7633 3.2H34.0913L36.3953 13.656H36.2913L38.5713 3.2H40.8993L37.9153 15.04H34.7713ZM46.085 15.168C45.189 15.168 44.3997 14.9813 43.717 14.608C43.0344 14.2293 42.4984 13.7067 42.109 13.04C41.725 12.3733 41.533 11.6107 41.533 10.752C41.533 9.888 41.725 9.128 42.109 8.472C42.4984 7.81067 43.0344 7.29333 43.717 6.92C44.3997 6.54667 45.189 6.36 46.085 6.36C46.981 6.36 47.7704 6.54667 48.453 6.92C49.1357 7.29333 49.669 7.81067 50.053 8.472C50.4424 9.128 50.637 9.888 50.637 10.752C50.637 11.6107 50.4424 12.3733 50.053 13.04C49.669 13.7067 49.1357 14.2293 48.453 14.608C47.7704 14.9813 46.981 15.168 46.085 15.168ZM46.085 13.448C46.5704 13.448 46.9944 13.336 47.357 13.112C47.7197 12.888 48.0024 12.576 48.205 12.176C48.4077 11.7707 48.509 11.296 48.509 10.752C48.509 10.208 48.4077 9.73867 48.205 9.344C48.0024 8.944 47.7197 8.63467 47.357 8.416C46.9944 8.19733 46.5704 8.088 46.085 8.088C45.605 8.088 45.181 8.19733 44.813 8.416C44.4504 8.63467 44.1677 8.944 43.965 9.344C43.7624 9.73867 43.661 10.208 43.661 10.752C43.661 11.296 43.7624 11.7707 43.965 12.176C44.1677 12.576 44.4504 12.888 44.813 13.112C45.181 13.336 45.605 13.448 46.085 13.448ZM54.5698 2.496V15H52.4978V2.496H54.5698ZM60.6255 15.16C60.3215 15.16 60.0122 15.1307 59.6975 15.072C59.3829 15.0133 59.0949 14.904 58.8335 14.744C58.5722 14.584 58.3615 14.3493 58.2015 14.04C58.0415 13.7307 57.9615 13.3227 57.9615 12.816C57.9615 12.6987 57.9615 12.5813 57.9615 12.464C57.9615 12.3413 57.9615 12.216 57.9615 12.088V8.184H55.9535V6.504H56.7695C57.0469 6.504 57.2655 6.49333 57.4255 6.472C57.5855 6.44533 57.7029 6.38667 57.7775 6.296C57.8522 6.20533 57.9002 6.064 57.9215 5.872C57.9482 5.67467 57.9615 5.40267 57.9615 5.056V3.704H60.0735V6.504H62.6015V8.184H60.0735V11.592C60.0735 11.6933 60.0735 11.7947 60.0735 11.896C60.0735 11.992 60.0735 12.0853 60.0735 12.176C60.0735 12.5707 60.1215 12.888 60.2175 13.128C60.3135 13.368 60.5402 13.488 60.8975 13.488C61.0682 13.488 61.2282 13.472 61.3775 13.44C61.5322 13.408 61.6469 13.376 61.7215 13.344V14.992C61.6202 15.0293 61.4735 15.0667 61.2815 15.104C61.0895 15.1413 60.8709 15.16 60.6255 15.16ZM66.8679 15.176C66.2332 15.176 65.6759 15.0773 65.1959 14.88C64.7159 14.6773 64.3399 14.3867 64.0679 14.008C63.7959 13.6293 63.6599 13.1733 63.6599 12.64C63.6599 12.0587 63.8172 11.5813 64.1319 11.208C64.4519 10.8293 64.8812 10.5387 65.4199 10.336C65.9586 10.128 66.5559 9.99467 67.2119 9.936C68.1826 9.84 68.8599 9.74933 69.2439 9.664C69.6332 9.57333 69.8279 9.42933 69.8279 9.232C69.8279 9.22667 69.8279 9.224 69.8279 9.224C69.8279 9.21867 69.8279 9.216 69.8279 9.216C69.8279 8.84267 69.6599 8.55467 69.3239 8.352C68.9879 8.14933 68.5132 8.048 67.8999 8.048C67.2546 8.048 66.7586 8.16267 66.4119 8.392C66.0706 8.616 65.8999 8.97333 65.8999 9.464H63.8199C63.8199 8.79733 63.9959 8.23467 64.3479 7.776C64.7052 7.312 65.1932 6.96 65.8119 6.72C66.4306 6.48 67.1319 6.36 67.9159 6.36C68.6466 6.36 69.3159 6.46933 69.9239 6.688C70.5319 6.90667 71.0199 7.23733 71.3879 7.68C71.7559 8.12267 71.9399 8.67467 71.9399 9.336C71.9399 9.448 71.9399 9.56 71.9399 9.672C71.9399 9.784 71.9399 9.896 71.9399 10.008V13.208C71.9399 13.4107 71.9452 13.6107 71.9559 13.808C71.9719 14 72.0012 14.1733 72.0439 14.328C72.0972 14.4987 72.1612 14.6427 72.2359 14.76C72.3106 14.8773 72.3692 14.9573 72.4119 15H70.3319C70.2946 14.9627 70.2412 14.8907 70.1719 14.784C70.1079 14.672 70.0492 14.544 69.9959 14.4C69.9426 14.24 69.9026 14.0693 69.8759 13.888C69.8492 13.7013 69.8359 13.496 69.8359 13.272L70.2519 13.56C70.0919 13.8853 69.8466 14.1707 69.5159 14.416C69.1906 14.656 68.8012 14.8427 68.3479 14.976C67.8946 15.1093 67.4012 15.176 66.8679 15.176ZM67.3799 13.52C67.8172 13.52 68.2226 13.4453 68.5959 13.296C68.9692 13.1467 69.2706 12.9173 69.4999 12.608C69.7292 12.2933 69.8439 11.8907 69.8439 11.4V10.264L70.3559 10.84C70.0146 10.968 69.6039 11.0747 69.1239 11.16C68.6439 11.24 68.1586 11.304 67.6679 11.352C67.0386 11.4107 66.5639 11.52 66.2439 11.68C65.9292 11.84 65.7719 12.1013 65.7719 12.464C65.7719 12.816 65.9052 13.08 66.1719 13.256C66.4386 13.432 66.8412 13.52 67.3799 13.52ZM73.8934 15V6.504H75.9974V9.328L75.5094 9.056C75.5627 8.688 75.6614 8.34133 75.8054 8.016C75.9494 7.68533 76.1414 7.39733 76.3814 7.152C76.6214 6.90133 76.9121 6.70667 77.2534 6.568C77.5947 6.42933 77.9841 6.36 78.4214 6.36C78.7681 6.36 79.0401 6.38667 79.2374 6.44C79.4401 6.488 79.5654 6.528 79.6134 6.56L79.2294 8.488C79.1761 8.45067 79.0667 8.40533 78.9014 8.352C78.7414 8.29333 78.5254 8.264 78.2534 8.264C77.8214 8.264 77.4587 8.33867 77.1654 8.488C76.8774 8.632 76.6481 8.82933 76.4774 9.08C76.3067 9.32533 76.1841 9.59733 76.1094 9.896C76.0347 10.1893 75.9974 10.4827 75.9974 10.776V15H73.8934Z" fill="#2FC18C"/>
<path d="M9.61426 4.27714V1.20178C9.61426 0.894126 9.49648 0.58647 9.26214 0.35092C9.02779 0.116573 8.72013 0 8.41248 0C8.10482 0 7.79716 0.116573 7.56282 0.35092L0 7.81159L7.56282 15.271C7.79716 15.5054 8.10482 15.6232 8.41248 15.6232C8.72013 15.6232 9.02779 15.5054 9.26214 15.271C9.49648 15.0367 9.61426 14.7278 9.61426 14.4214V11.4302C12.9192 11.5119 16.5305 12.1104 19.2285 16.2241V15.0223C19.2285 9.45442 15.0223 4.87563 9.61426 4.27714Z" fill="#2FC18C"/>
</svg>
